<svg version="1.1" id="Layer_1" xmlns="http://www.w3.org/2000/svg" xmlns:xlink="http://www.w3.org/1999/xlink" x="0px" y="0px"
     width="100%" viewBox="0 0 192 192" enable-background="new 0 0 192 192" xml:space="preserve">
<path fill="#FFFFFF" opacity="1.000000" stroke="white" stroke-width="10"
    d="
M77.649918,104.106949 
    C78.596970,93.038719 80.368149,82.628952 84.066689,72.606880 
    C86.127586,67.022400 88.236755,61.469448 90.999084,56.178658 
    C94.597931,49.285675 99.851120,46.536781 107.372208,47.739594 
    C112.039047,48.485943 113.652588,50.788006 112.113411,55.054928 
    C111.257477,57.427761 112.306473,59.158985 113.734718,60.382347 
    C123.628197,68.856651 126.626472,80.347527 127.121803,92.487701 
    C127.661331,105.711037 127.892670,118.943733 124.729530,132.094467 
    C122.055687,143.210968 109.644112,151.093262 97.026375,149.250580 
    C86.326149,147.687912 84.287239,139.797623 82.045952,131.831360 
    C79.547676,122.951683 76.307213,114.118332 77.649918,104.106949 
M103.300705,59.425217 
    C102.581108,58.670753 102.929314,56.920914 100.675163,57.176998 
    C91.353409,71.645744 87.260567,88.054398 85.379654,105.154510 
    C84.264885,115.289345 88.776886,124.316132 91.524467,133.652939 
    C93.579948,140.637848 98.817139,142.826187 105.830536,140.761185 
    C112.825287,138.701691 116.017624,133.707596 117.496788,127.174934 
    C119.864830,116.716614 120.186935,106.055916 119.486488,95.445480 
    C118.952049,87.349625 117.455132,79.335701 113.075264,72.151276 
    C110.373535,67.719551 105.527344,65.024574 103.300705,59.425217 
z"/>
<path fill="#FFFFFF" opacity="1.000000" stroke="white" stroke-width="10"
    d="
M26.338501,112.878067 
    C24.293034,122.157791 26.300848,131.257690 24.411102,140.109314 
    C23.890154,142.549454 23.658176,145.078308 20.705259,145.087799 
    C17.580488,145.097855 16.542692,142.660126 16.698343,139.875641 
    C17.206789,130.779999 18.107841,121.696945 18.323378,112.596382 
    C18.691446,97.055458 21.353098,81.491562 17.982210,65.952614 
    C17.428247,63.398979 17.727993,60.651516 17.709599,57.993103 
    C17.695208,55.913559 18.805002,54.371063 20.727846,53.877388 
    C31.978952,50.988754 43.331650,49.907024 54.519970,53.867512 
    C67.821251,58.575947 72.085289,78.237175 62.467808,88.990623 
    C54.665565,97.714432 45.512703,102.993126 33.363930,102.684738 
    C26.523977,102.511116 26.352924,103.223160 26.338501,112.878067 
M27.906267,61.492104 
    C26.841997,62.428444 26.197441,63.622311 26.394081,65.018990 
    C27.648552,73.929176 27.257074,82.894905 27.387262,91.843361 
    C27.419252,94.042168 28.825335,94.515533 30.715696,94.613487 
    C41.054268,95.149147 49.410053,91.430809 56.088638,83.467651 
    C63.726639,74.360535 57.149391,62.890148 49.002419,60.679344 
    C42.144566,58.818363 35.306263,58.416943 27.906267,61.492104 
z"/>
<path fill="#FFFFFF" opacity="1.000000" stroke="white" stroke-width="10"
    d="
M158.081161,80.926682 
    C162.962173,87.446175 167.686096,93.629051 172.312805,99.883865 
    C177.674973,107.132957 180.648285,115.014107 180.541611,124.330528 
    C180.475616,130.093323 177.652832,133.537933 173.591461,136.033386 
    C167.382553,139.848343 160.580917,142.625870 153.570679,144.757416 
    C152.474915,145.090607 151.302505,145.286133 150.158310,145.323547 
    C147.147842,145.421982 143.529434,145.761078 143.011948,141.786728 
    C142.486649,137.752548 146.177734,138.201309 148.828476,137.367157 
    C155.945847,135.127472 162.961365,132.533112 169.426147,128.708755 
    C172.981827,126.605331 173.725220,122.213333 171.817657,116.724091 
    C168.872971,108.250336 163.425232,101.316299 158.106598,94.333115 
    C152.274506,86.675735 146.597290,78.902252 142.155289,70.370735 
    C136.026718,58.599869 140.962906,50.871937 154.160522,50.594959 
    C161.715286,50.436409 168.552628,52.539619 175.008942,56.102364 
    C177.664825,57.567951 179.462631,59.973560 177.639816,63.138111 
    C175.790268,66.349091 173.367020,65.224968 170.861069,63.650410 
    C166.449539,60.878540 161.459122,59.566666 156.412964,58.547470 
    C153.650421,57.989498 150.931717,58.615726 149.152267,60.804874 
    C147.524551,62.807350 148.955338,64.902702 150.021194,66.789658 
    C152.629349,71.407066 155.259674,76.011948 158.081161,80.926682 
z"/>
</svg>